<svg width="2977" height="680" viewBox="0 0 2977 680" fill="none" xmlns="http://www.w3.org/2000/svg">
<g clip-path="url(#clip0_1053_54694)">
<path d="M367.758 247.859C367.758 110.996 478.708 0.0458984 615.571 0.0458984H680.003V432.232C680.003 569.096 569.053 680.046 432.189 680.046H367.758V247.859Z" fill="#FFCF33"/>
<path d="M0 212.174C0 349.038 110.95 459.987 247.813 459.987H312.245V247.859C312.245 110.996 201.295 0.0458984 64.4314 0.0458984H0V212.174Z" fill="#FFCF33"/>
<path d="M312.243 458.182L1.88281 0.0458984H64.4294C201.293 0.0458984 312.243 110.996 312.243 247.859V458.182Z" fill="#FFD755"/>
<path d="M1167.19 367.801C1304.05 367.801 1415 478.751 1415 615.614V680.046H982.814C845.95 680.046 735 569.096 735 432.232V367.801H1167.19Z" fill="#4FA58C"/>
<path d="M1324.43 680.045L1112.9 367.8H1167.18C1304.05 367.8 1415 478.75 1415 615.613V680.045H1324.43Z" fill="#6CB49F"/>
<path d="M1167.19 312.291C1304.05 312.291 1415 201.341 1415 64.4773V0.0458984H982.814C845.95 0.0458984 735 110.996 735 247.859V312.291H1167.19Z" fill="#4FA58C"/>
<path d="M1075.3 312.291L879.125 22.7143C910.67 8.16294 945.793 0.0458984 982.812 0.0458984H1415V64.4773C1415 201.341 1304.05 312.291 1167.19 312.291H1075.3Z" fill="#6CB49F"/>
<path d="M2551.7 368V680H2475.37V653.394C2460.47 671.131 2438.11 680 2408.31 680C2387.5 680 2368.52 675.214 2351.37 665.641C2334.22 655.787 2320.59 641.85 2310.46 623.831C2300.62 605.812 2295.7 584.977 2295.7 561.327C2295.7 537.677 2300.62 516.983 2310.46 499.245C2320.59 481.226 2334.22 467.43 2351.37 457.858C2368.52 448.285 2387.5 443.499 2408.31 443.499C2435.58 443.499 2456.67 451.382 2471.57 467.149V417C2471.57 389.938 2493.51 368 2520.57 368H2551.7ZM2425.18 616.229C2438.96 616.229 2450.34 611.443 2459.34 601.87C2468.34 592.016 2472.84 578.501 2472.84 561.327C2472.84 544.434 2468.34 531.201 2459.34 521.628C2450.62 512.056 2439.24 507.269 2425.18 507.269C2411.12 507.269 2399.59 512.056 2390.6 521.628C2381.6 531.201 2377.1 544.434 2377.1 561.327C2377.1 578.501 2381.6 592.016 2390.6 601.87C2399.59 611.443 2411.12 616.229 2425.18 616.229Z" fill="white"/>
<path d="M2212.99 474.829C2221.24 464.22 2231.92 456.334 2245.01 451.172C2258.39 445.724 2273.62 443 2290.7 443V516.552C2283.3 515.691 2277.18 515.261 2272.34 515.261C2254.98 515.261 2241.31 519.993 2231.35 529.456C2221.67 538.918 2216.83 553.399 2216.83 572.898V680H2135.7V443H2212.99V474.829Z" fill="white"/>
<path fill-rule="evenodd" clip-rule="evenodd" d="M1910.12 664.543C1926.51 674.848 1945.06 680 1965.78 680C1980.93 680 1994.69 677.034 2007.06 671.101C2015.05 667.268 2022.01 662.524 2027.93 656.868V680H2104.7V443H2027.93V466.587C2021.82 460.685 2014.71 455.789 2006.6 451.899C1994.54 445.966 1980.93 443 1965.78 443C1945.06 443 1926.51 448.152 1910.12 458.457C1894.04 468.761 1881.2 482.812 1871.62 500.611C1862.34 518.409 1857.7 538.706 1857.7 561.5C1857.7 584.294 1862.34 604.591 1871.62 622.389C1881.2 640.188 1894.04 654.239 1910.12 664.543ZM2016.8 600.375C2007.52 610.368 1995.31 615.364 1980.16 615.364C1970.57 615.364 1961.91 613.022 1954.18 608.338C1946.45 603.654 1940.42 597.253 1936.09 589.134C1931.76 581.016 1929.6 571.804 1929.6 561.5C1929.6 550.883 1931.76 541.516 1936.09 533.397C1940.73 525.279 1946.76 519.034 1954.18 514.662C1961.91 509.978 1970.73 507.636 1980.62 507.636C1990.52 507.636 1999.17 509.978 2006.6 514.662C2014.33 519.034 2020.2 525.279 2024.22 533.397C2028.55 541.516 2030.72 550.883 2030.72 561.5C2030.72 577.113 2026.08 590.071 2016.8 600.375Z" fill="white"/>
<path d="M1728.7 680C1697.27 680 1668.99 673.429 1643.85 660.286C1618.99 646.857 1599.42 628.286 1585.13 604.571C1570.85 580.857 1563.7 554 1563.7 524C1563.7 494 1570.85 467.143 1585.13 443.429C1599.42 419.714 1618.99 401.286 1643.85 388.143C1668.99 374.714 1697.27 368 1728.7 368C1756.13 368 1780.85 372.857 1802.85 382.571C1824.85 392.286 1843.13 406.286 1857.7 424.571L1803.7 473.429C1784.27 450 1760.7 438.286 1732.99 438.286C1716.7 438.286 1702.13 441.857 1689.27 449C1676.7 456.143 1666.85 466.286 1659.7 479.429C1652.85 492.286 1649.42 507.143 1649.42 524C1649.42 540.857 1652.85 555.857 1659.7 569C1666.85 581.857 1676.7 591.857 1689.27 599C1702.13 606.143 1716.7 609.714 1732.99 609.714C1760.7 609.714 1784.27 598 1803.7 574.571L1857.7 623.429C1843.13 641.714 1824.85 655.714 1802.85 665.429C1780.85 675.143 1756.13 680 1728.7 680Z" fill="white"/>
<path fill-rule="evenodd" clip-rule="evenodd" d="M2898.84 311L2976.84 72.0747H2904.72L2861.64 207.316L2819.69 72H2751.47L2708.4 206.069L2666.83 72.0747H2589.57L2667.56 311H2744.4L2783.94 190.909L2821.98 311H2898.84Z" fill="white"/>
<path d="M2464.2 312C2438.71 312 2415.71 306.721 2395.19 296.163C2374.68 285.605 2358.57 270.941 2346.84 252.171C2335.42 233.401 2329.7 212.138 2329.7 188.382C2329.7 164.92 2335.42 143.804 2346.84 125.034C2358.57 106.264 2374.54 91.7465 2394.75 81.4816C2415.27 70.9236 2438.42 65.6445 2464.2 65.6445C2489.99 65.6445 2513.14 70.9236 2533.65 81.4816C2554.16 91.7465 2570.13 106.264 2581.56 125.034C2592.99 143.51 2598.7 164.627 2598.7 188.382C2598.7 212.138 2592.99 233.401 2581.56 252.171C2570.13 270.941 2554.16 285.605 2533.65 296.163C2513.14 306.721 2489.99 312 2464.2 312ZM2464.2 245.572C2478.85 245.572 2490.87 240.586 2500.24 230.615C2509.62 220.35 2514.31 206.272 2514.31 188.382C2514.31 170.785 2509.62 157.001 2500.24 147.03C2490.87 137.058 2478.85 132.072 2464.2 132.072C2449.55 132.072 2437.54 137.058 2428.16 147.03C2418.78 157.001 2414.09 170.785 2414.09 188.382C2414.09 206.272 2418.78 220.35 2428.16 230.615C2437.54 240.586 2449.55 245.572 2464.2 245.572Z" fill="white"/>
<path d="M2100.48 0H2135C2162.06 0 2184 21.938 2184 49V312H2100.48V0Z" fill="white"/>
<path d="M2222.7 0H2257.22C2284.28 0 2306.22 21.938 2306.22 49V312H2222.7V0Z" fill="white"/>
<path d="M2077.69 189.262C2077.69 189.849 2077.25 196.741 2076.37 209.938H1903.19C1906.7 222.256 1913.44 231.788 1923.41 238.533C1933.66 244.985 1946.41 248.211 1961.65 248.211C1973.07 248.211 1982.89 246.598 1991.1 243.372C1999.59 240.146 2008.09 234.867 2016.59 227.535L2060.54 273.287C2037.39 299.096 2003.55 312 1959.01 312C1931.17 312 1906.7 306.721 1885.61 296.163C1864.51 285.605 1848.1 270.941 1836.38 252.171C1824.95 233.401 1819.23 212.138 1819.23 188.382C1819.23 164.92 1824.8 143.95 1835.94 125.474C1847.36 106.704 1863.04 92.0397 1882.97 81.4816C1902.89 70.9236 1925.31 65.6445 1950.22 65.6445C1973.95 65.6445 1995.49 70.6303 2014.83 80.6018C2034.17 90.2801 2049.41 104.504 2060.54 123.274C2071.97 141.751 2077.69 163.747 2077.69 189.262ZM1950.66 125.034C1937.76 125.034 1926.92 128.7 1918.13 136.032C1909.63 143.364 1904.21 153.335 1901.87 165.946H1999.45C1997.1 153.335 1991.54 143.364 1982.74 136.032C1974.25 128.7 1963.55 125.034 1950.66 125.034Z" fill="white"/>
<path d="M1740.09 197.524V311.794H1653.06V196.204L1535.7 0H1608.83C1620.45 0 1631.21 6.11245 1637.17 16.0923L1700.53 122.298L1763.9 16.0923C1769.85 6.11248 1780.61 0 1792.24 0H1857.89L1740.09 197.524Z" fill="white"/>
</g>
<defs>
<clipPath id="clip0_1053_54694">
<rect width="2977" height="680" fill="white"/>
</clipPath>
</defs>
</svg>
